<svg width="81" height="81" viewBox="0 0 81 81" fill="none" xmlns="http://www.w3.org/2000/svg">
  <rect width="81" height="81" fill="transparent"/>
  <path d="M20.5 22.5L25.5 27.5V33.5C25.5 35.71 26.79 37.5 29 37.5H52C54.21 37.5 55.5 35.71 55.5 33.5V27.5L60.5 22.5" stroke="#999999" stroke-width="2" stroke-linecap="round" stroke-linejoin="round"/>
  <path d="M20.5 22.5H32C37.52 22.5 42 26.98 42 32.5V49.5C42 55.02 37.52 59.5 32 59.5H20.5C14.98 59.5 10.5 55.02 10.5 49.5V32.5C10.5 26.98 14.98 22.5 20.5 22.5Z" stroke="#999999" stroke-width="2"/>
  <path d="M42 32.5V49.5C42 55.02 37.52 59.5 32 59.5H20.5" stroke="#999999" stroke-width="2" stroke-linecap="round"/>
</svg>